HIERARCHY
ROOT ui
{
	 OFFSET 0 0 0
	 CHANNELS 3 XPosition YPosition Z Position
	 EndSite
	 {
	 OFFSET 0 -1 0
	 }
}
ROOT li
{
	 OFFSET 0 0 0
	 CHANNELS 3 XPosition YPosition Z Position
	 EndSite
	 {
	 OFFSET 0 -1 0
	 }
}
ROOT ul
{
	 OFFSET 0 0 0
	 CHANNELS 3 XPosition YPosition Z Position
	 EndSite
	 {
	 OFFSET 0 -1 0
	 }
}
ROOT ll
{
	 OFFSET 0 0 0
	 CHANNELS 3 XPosition YPosition Z Position
	 EndSite
	 {
	 OFFSET 0 -1 0
	 }
}
ROOT tt
{
	 OFFSET 0 0 0
	 CHANNELS 3 XPosition YPosition Z Position
	 EndSite
	 {
	 OFFSET 0 -1 0
	 }
}
ROOT tb
{
	 OFFSET 0 0 0
	 CHANNELS 3 XPosition YPosition Z Position
	 EndSite
	 {
	 OFFSET 0 -1 0
	 }
}
ROOT td
{
	 OFFSET 0 0 0
	 CHANNELS 3 XPosition YPosition Z Position
	 EndSite
	 {
	 OFFSET 0 -1 0
	 }
}
ROOT v
{
	 OFFSET 0 0 0
	 CHANNELS 3 XPosition YPosition Z Position
	 EndSite
	 {
	 OFFSET 0 -1 0
	 }
}
ROOT bn
{
	 OFFSET 0 0 0
	 CHANNELS 3 XPosition YPosition Z Position
	 EndSite
	 {
	 OFFSET 0 -1 0
	 }
}
MOTION
Frames: 16
Frame Time: 0.002
0.0033105940818786623	6.789000332355499E-5	0		0.4645597229003906	-2.38150927734375	0		-0.9185479125976562	0.3797980041503906	0		-0.5468359985351563	-2.911632568359375	0		1.6508936767578124	-0.40465789794921875	0		3.147426513671875	-0.37626263427734374	0		4.47809912109375	-0.33658236694335936	0		5.89324072265625	0.22400982666015626	0		-0.2210724639892578	5.9287197265625	0		
-0.07370891571044921	0.0017849780321121216	0		0.4375672607421875	-2.37847998046875	0		-0.9966368408203125	0.37652767944335935	0		-0.5258182983398437	-2.90826611328125	0		1.68883642578125	-0.4065210266113281	0		3.175535400390625	-0.365986572265625	0		4.46399169921875	-0.34172415161132813	0		5.8932119140625	0.22343467712402343	0		-0.36956393432617185	5.89741748046875	0		
0.003185297966003418	-6.35794997215271E-4	0		0.4644343566894531	-2.382213134765625	0		-0.9227278442382812	0.3751498107910156	0		-0.5598638305664062	-2.905157958984375	0		1.6838341064453124	-0.4008165283203125	0		3.145466796875	-0.36494003295898436	0		4.46900244140625	-0.3351625061035156	0		5.8781845703125	0.22502212524414061	0		-0.3696379089355469	5.89705712890625	0		
0.003061979055404663	-0.0010115790367126465	0		0.43734140014648437	-2.3792197265625	0		-0.9287796020507812	0.3798614501953125	0		-0.5291029663085938	-2.912956787109375	0		1.6806536865234376	-0.4051601257324219	0		3.135783203125	-0.33319891357421877	0		4.468876953125	-0.3355635986328125	0		5.869724609375	0.2574671325683594	0		-0.3896432189941406	5.90295849609375	0		
0.0029096219539642334	-0.001399757981300354	0		0.4651505432128906	-2.380997802734375	0		-0.9929361572265625	0.3793642578125	0		-0.560182861328125	-2.90591357421875	0		1.65354150390625	-0.40219195556640625	0		3.1594599609375	-0.34594586181640624	0		4.4728037109375	-0.33004891967773436	0		5.8871884765625	0.21112934875488282	0		-0.3877685852050781	5.90054638671875	0		
0.012875096321105957	0.008063497543334961	0		0.44509014892578125	-2.371126220703125	0		-0.9090006713867187	0.3858187255859375	0		-0.5233792114257813	-2.905815185546875	0		1.69745751953125	-0.3962174682617188	0		3.17380712890625	-0.3085785827636719	0		4.47082177734375	-0.3164744567871094	0		5.885181640625	0.25536512756347657	0		-0.20733409118652343	5.937666015625	0		
0.0025558309555053713	-0.002202554941177368	0		0.4667762451171875	-2.378840576171875	0		-0.9242175903320312	0.38263385009765627	0		-0.560612060546875	-2.90670166015625	0		1.6472607421875	-0.3969552917480469	0		3.128652587890625	-0.30640621948242186	0		4.47446923828125	-0.3289955139160156	0		5.89217236328125	0.25255421447753906	0		-0.35586181640625	5.90731103515625	0		
0.002369739055633545	-0.0026126749515533445	0		0.4405850524902344	-2.3768984375	0		-0.92439794921875	0.38223748779296873	0		-0.5299409790039062	-2.91453125	0		1.6770797119140626	-0.3968046875	0		3.141626708984375	-0.2950435791015625	0		4.4724716796875	-0.3154456176757813	0		5.87707177734375	0.2539252471923828	0		-0.23681956481933594	5.91626025390625	0		
0.002185374975204468	-0.003025995969772339	0		0.4383369140625	-2.37929052734375	0		-0.9985693359375	0.3828625793457031	0		-0.566138671875	-2.9124384765625	0		1.6419619140625	-0.3917596435546875	0		3.145506591796875	-0.2905607299804687	0		4.4682001953125	-0.321871337890625	0		5.879544921875	0.20971287536621094	0		-0.3560543212890625	5.90649853515625	0		
0.0020075650215148925	-0.0034400749206542967	0		0.44219131469726564	-2.37476708984375	0		-0.9946861572265625	0.38640814208984375	0		-0.5663613891601562	-2.91284375	0		1.6466944580078124	-0.3982677307128906	0		3.144864990234375	-0.25201322937011716	0		4.4751689453125	-0.31145242309570315	0		5.88602294921875	0.24149024963378907	0		-0.342003662109375	5.91589501953125	0		
0.00399294900894165	0.007119316101074219	0		0.4170459899902344	-2.37083935546875	0		-0.989792236328125	0.3899418029785156	0		-0.5954452514648437	-2.903845458984375	0		1.6336475830078125	-0.38952520751953124	0		3.1445693359375	-0.26147216796875	0		4.48010791015625	-0.30400265502929685	0		5.88590234375	0.24062191772460936	0		-0.34208026123046875	5.91548828125	0		
0.003840461015701294	0.00671278190612793	0		0.46775653076171875	-2.37895947265625	0		-0.9259452514648437	0.3886611022949219	0		-0.5328130493164063	-2.917116943359375	0		1.6383916015625	-0.39702435302734373	0		3.170729736328125	-0.2392879638671875	0		4.4640771484375	-0.2952534484863281	0		5.883900390625	0.2830870361328125	0		-0.20883964538574218	5.93623779296875	0		
0.00155239200592041	-0.004657304763793945	0		0.4327449035644531	-2.367879150390625	0		-1.0000543823242187	0.3903033447265625	0		-0.5798447875976562	-2.906856201171875	0		1.629293212890625	-0.39432080078125	0		3.151537353515625	-0.2434656524658203	0		4.471853515625	-0.30182388305664065	0		5.879623046875	0.29970025634765624	0		-0.3441451416015625	5.91872021484375	0		
-0.0034938499927520753	2.198000065982342E-5	0		0.4305714111328125	-2.370246337890625	0		-0.931241943359375	0.3839665832519531	0		-0.5830527954101562	-2.911196533203125	0		1.6350880126953125	-0.40081387329101564	0		3.133767578125	-0.21864686584472656	0		4.46991455078125	-0.2892430725097656	0		5.8977939453125	0.24810737609863281	0		-0.3782674865722656	5.91280859375	0		
0.0013408700227737426	-0.0054262328147888185	0		0.4143954772949219	-2.3744072265625	0		-0.9902714233398437	0.3884190368652344	0		-0.570279296875	-2.91874951171875	0		1.6149903564453125	-0.40093283081054687	0		3.16252783203125	-0.22946395874023437	0		4.46371923828125	-0.2965881042480469	0		5.89840869140625	0.24212306213378906	0		-0.3611865844726562	5.92019580078125	0		
0.01140679931640625	0.0040669870376586915	0		0.47332302856445313	-2.373599853515625	0		-0.9121665649414062	0.39997378540039064	0		-0.5673235473632813	-2.91515283203125	0		1.6349122314453124	-0.40159307861328125	0		3.167898681640625	-0.19793276977539062	0		4.47282421875	-0.28412298583984374	0		5.90013037109375	0.30188919067382813	0		-0.3271372375488281	5.92435888671875	0		
